<?xml version="1.0" encoding="utf-8"?>
<!-- Generator: Adobe Illustrator 20.1.0, SVG Export Plug-In . SVG Version: 6.00 Build 0)  -->
<svg version="1.1" id="Слой_1" xmlns="http://www.w3.org/2000/svg" xmlns:xlink="http://www.w3.org/1999/xlink" x="0px" y="0px"
	 viewBox="0 0 2246.3 316.8" style="enable-background:new 0 0 2246.3 316.8;" xml:space="preserve">
<style type="text/css">
	.st0{fill:#768692;}
</style>
<path class="st0" d="M526.7,147.7L526.7,147.7c12.6,0,25.2,0.9,33.7-8c5-5.5,8.1-14.4,8.1-27.5c0-8.1-0.9-17.9-9-24.7
	c-8.6-7.2-20.2-7.2-31.9-7.2h-56.2c-16.1,0-17.5,11.8-17.5,18.4v49H526.7z M352.2,316.8V61.4c0-13,1.8-31,12.6-43.1
	C371.5,10.6,385,2,406.6,2h174c25.2,0,48.5,3.2,66.1,22c14.8,15.7,23.4,40.5,23.4,85.9c0,22-1.8,76-28.3,98.9
	c-14.9,12.6-38.2,17.1-55.3,17.1H453.8v90.9H352.2z"/>
<path class="st0" d="M783,223.2L783,223.2c-2.7,0-9,0.5-13,4.1c-3.2,3.1-3.6,7.2-3.6,11.2c0,3.6,0.4,7.2,3.6,10.3
	c3.1,2.7,8,4.1,12.1,4.1H828c4.5,0,10.3-0.9,13-3.2c4.1-3.1,4.4-7.6,4.4-11.7v-14.8H783z M852.2,78.5c29.3,0,48.6,10.4,58.9,20.6
	c19.8,19.4,22.5,47.7,22.5,67V266c0,12.6-0.9,27-11.7,38.3c-11.2,11.7-27,12.6-40.5,12.6H741.2c-14.9,0-31.1-0.9-43.6-12.6
	c-18.5-16.6-19.4-48.2-19.4-67c0-20.7,1.8-45.8,20.8-60.3c13-9.9,28.2-10.3,42.3-10.3h104.3V163c0-4-0.4-10.3-4.4-15.7
	c-6.8-9-18-9.5-27-9.5H694.4V78.5H852.2z"/>
<path class="st0" d="M960.6,121.2c0-9,0.4-20.2,9.9-29.2c13.5-13.5,37.4-13.5,52.1-13.5h82.8c27.4,0,55.7,1.8,80,21.1
	c26.5,21.1,29.7,49.9,29.7,70.6v146.6H1127v-121c0-16.6-1.4-30.1-9.9-40.9c-7.6-9.9-18.5-14.4-36.5-14.4h-15.7
	c-3.6,0-8.5,0.5-12.1,3.6c-4.5,4-4,9-4,13.5v159.2h-88.1V121.2z"/>
<path class="st0" d="M1362.6,139.7L1362.6,139.7c-14.3,0-23.3,7.1-28.3,14.4c-8.5,12.1-9.4,29.7-9.4,42.8c0,22.4,2.2,33.7,6.3,41.3
	c8.1,15.8,23.8,17.5,31.4,17.5h21.2c8.5,0,12.1-2.7,13-3.6c4.5-4.1,4.5-12.6,4.5-16.2v-96.2H1362.6z M1489.4,2v264.4
	c0,10.3-1.3,25.2-7.7,34.2c-10.3,15.3-27.8,16.2-40.9,16.2h-118.3c-36.9,0-62.8-16.2-75-45.8c-9.4-22.5-10.8-50-10.8-79.2
	c0-29.2,1.4-56.7,17.5-79.6c20.7-29.2,54.4-33.7,79.1-33.7h67.9V2H1489.4z"/>
<path class="st0" d="M1609.5,239.4L1609.5,239.4c1.8,2.7,12.1,16.2,39.1,16.2c23.8,0,34.6-10.4,38.7-16.2c7.2-9.9,9-24.7,9-41.8
	c0-25.2-4-36.4-8.5-42.8c-4.5-5.9-14.9-15.2-39.1-15.2c-24.3,0-34.6,9.4-39.1,15.2c-3.1,4.5-8.6,14.8-8.6,42.8
	C1601,223.7,1605.9,234.5,1609.5,239.4 M1754.7,100.1c29.7,26.5,31.5,73.7,31.5,97.6c0,23.8-1.8,71-31.5,97.5
	c-26.1,23-68.4,24.3-106.1,24.3c-37.8,0-80.1-1.3-106.1-24.3c-29.6-26.5-31.5-73.7-31.5-97.5c0-23.9,1.8-71.1,31.5-97.6
	c26.1-23,68.3-24.3,106.1-24.3C1686.4,75.8,1728.6,77.1,1754.7,100.1z"/>
<path class="st0" d="M1807.8,178.7c0-22.9,1.8-56.2,28.3-77.8c26.1-21.6,64.7-22.5,88.2-22.5h58.4v62h-30.6
	c-17.1,0-33.3,2.3-44.5,17.1c-10.3,13.9-11.7,31.9-11.7,45.5v113.7h-88.1V178.7z"/>
<path class="st0" d="M2095.6,223.2L2095.6,223.2c-2.7,0-9,0.5-13,4.1c-3.2,3.1-3.6,7.2-3.6,11.2c0,3.6,0.4,7.2,3.6,10.3
	c3.1,2.7,8.1,4.1,12.1,4.1h45.9c4.5,0,10.3-0.9,13.1-3.2c4.1-3.1,4.5-7.6,4.5-11.7v-14.8H2095.6z M2164.9,78.5
	c29.2,0,48.5,10.4,58.9,20.6c19.8,19.4,22.5,47.7,22.5,67V266c0,12.6-0.9,27-11.7,38.3c-11.2,11.7-26.9,12.6-40.5,12.6h-140.3
	c-14.8,0-31-0.9-43.6-12.6c-18.5-16.6-19.4-48.2-19.4-67c0-20.7,1.8-45.8,20.7-60.3c13-9.9,28.4-10.3,42.3-10.3h104.3V163
	c0-4-0.4-10.3-4.5-15.7c-6.8-9-18-9.5-27-9.5H2007V78.5H2164.9z"/>
<path class="st0" d="M245,61.5C220.3,25,181.8,3.9,136,3.9C61.1,3.9,0,67.8,0,146.1h45.8c0-52,40.5-94.3,90.2-94.3
	c43.5,0,77.7,29.5,86.2,72.3l0.5-3.9l0.9-5.2l1.1-5.2l1.2-5l1.4-5.1l1.6-4.9l1.7-4.9l1.9-4.7l2.1-4.8l2.1-4.6l2.4-4.5l2.6-4.4
	L245,61.5z"/>
<path class="st0" d="M0,155.2L0,155.2v115.1c0,22.2,22.8,46.5,51.7,46.5h168.5c28.9,0,51.7-24.3,51.7-46.5V155.2c0,0,0,0.1,0,0
	c0-3.4,0-10.1,0-10.4c-0.2-28.6-8.7-55.3-22.9-77.5c-14.3,22.3-22.7,48.9-22.9,77.5c0,0.3,0,7,0,10.4
	C150.5,155.2,75.6,155.2,0,155.2 M161.6,220.5v31.1c0,34.4-51.2,34.4-51.2,0v-31.1C110.4,186.2,161.6,186.1,161.6,220.5z"/>
</svg>
